<svg xmlns="http://www.w3.org/2000/svg" width="355" height="664" fill="none" viewBox="0 0 355 664"><g fill="#FFEA70" clip-path="url(#clip0_1503_1345)" opacity=".2"><path d="M3.43158 656.718C3.43157 652.961 6.48635 649.904 10.2412 649.904C13.996 649.904 17.0508 652.961 17.0508 656.718C17.0508 660.475 13.996 663.532 10.2412 663.532C6.48635 663.532 3.43158 660.475 3.43158 656.718Z"/><path d="M46.2942 612.429C41.7601 612.429 38.0845 616.107 38.0845 620.644C38.0845 625.18 41.7601 628.858 46.2942 628.858C50.8283 628.858 54.5039 625.18 54.5039 620.644C54.5039 616.107 50.8283 612.429 46.2942 612.429Z"/><path d="M72.7366 584.569C72.7366 579.284 77.0324 574.985 82.3146 574.985C87.5968 574.985 91.8926 579.284 91.8926 584.569C91.8926 589.854 87.5968 594.153 82.3146 594.153C77.0324 594.153 72.7366 589.854 72.7366 584.569Z"/><path d="M107.421 548.495C107.421 542.413 112.321 537.51 118.399 537.51C124.477 537.51 129.377 542.413 129.377 548.495C129.377 554.576 124.477 559.479 118.399 559.479C112.321 559.479 107.421 554.576 107.421 548.495Z"/><path d="M142.074 512.42C142.074 505.575 147.61 500.034 154.452 500.034C161.293 500.034 166.83 505.575 166.83 512.42C166.83 519.266 161.293 524.806 154.452 524.806C147.61 524.806 142.074 519.266 142.074 512.42Z"/><path d="M176.759 476.346C176.759 468.736 182.932 462.591 190.505 462.591C198.079 462.591 204.252 468.768 204.252 476.346C204.252 483.923 198.079 490.1 190.505 490.1C182.932 490.1 176.759 483.923 176.759 476.346Z"/><path d="M211.412 440.271C211.412 431.897 218.19 425.115 226.558 425.115C234.927 425.115 241.705 431.897 241.705 440.271C241.705 448.645 234.927 455.427 226.558 455.427C218.19 455.427 211.412 448.645 211.412 440.271Z"/><path d="M246.065 404.165C246.065 395.027 253.479 387.608 262.612 387.608C271.744 387.608 279.158 395.027 279.158 404.165C279.158 413.303 271.744 420.721 262.612 420.721C253.479 420.721 246.065 413.303 246.065 404.165Z"/><path d="M298.663 350.165C288.769 350.165 280.748 358.19 280.748 368.09C280.748 377.99 288.769 386.016 298.663 386.016C308.557 386.016 316.578 377.99 316.578 368.09C316.578 358.19 308.557 350.165 298.663 350.165Z"/><path d="M334.716 312.689C324.049 312.689 315.401 321.342 315.401 332.016C315.401 342.69 324.049 351.343 334.716 351.343C345.384 351.343 354.031 342.69 354.031 332.016C354.031 321.342 345.384 312.689 334.716 312.689Z"/><path d="M298.663 278.016C288.769 278.016 280.748 286.041 280.748 295.941C280.748 305.842 288.769 313.867 298.663 313.867C308.557 313.867 316.578 305.842 316.578 295.941C316.578 286.041 308.557 278.016 298.663 278.016Z"/><path d="M246.065 259.867C246.065 250.729 253.479 243.31 262.612 243.31C271.744 243.31 279.158 250.729 279.158 259.867C279.158 269.005 271.744 276.424 262.612 276.424C253.479 276.424 246.065 269.005 246.065 259.867Z"/><path d="M226.558 208.637C218.193 208.637 211.412 215.422 211.412 223.792C211.412 232.163 218.193 238.948 226.558 238.948C234.924 238.948 241.705 232.163 241.705 223.792C241.705 215.422 234.924 208.637 226.558 208.637Z"/><path d="M176.759 187.718C176.759 180.108 182.932 173.963 190.505 173.963C198.079 173.963 204.252 180.14 204.252 187.718C204.252 195.296 198.079 201.473 190.505 201.473C182.932 201.473 176.759 195.296 176.759 187.718Z"/><path d="M142.074 151.643C142.074 144.798 147.61 139.258 154.452 139.258C161.293 139.258 166.83 144.798 166.83 151.643C166.83 158.489 161.293 164.029 154.452 164.029C147.61 164.029 142.074 158.489 142.074 151.643Z"/><path d="M107.421 115.569C107.421 109.488 112.321 104.584 118.399 104.584C124.477 104.584 129.377 109.488 129.377 115.569C129.377 121.65 124.477 126.554 118.399 126.554C112.321 126.554 107.421 121.65 107.421 115.569Z"/><path d="M72.7366 79.4945C72.7366 74.2091 77.0324 69.9107 82.3146 69.9107C87.5968 69.9107 91.8926 74.2091 91.8926 79.4945C91.8926 84.7799 87.5968 89.0782 82.3146 89.0782C77.0324 89.0782 72.7366 84.7799 72.7366 79.4945Z"/><path d="M38.0845 43.42C38.0845 38.8987 41.7438 35.2053 46.2942 35.2053C50.8445 35.2053 54.5039 38.8669 54.5039 43.42C54.5039 47.9731 50.8445 51.6346 46.2942 51.6346C41.7438 51.6346 38.0845 47.9731 38.0845 43.42Z"/><path d="M3.43158 7.34547C3.43157 3.58837 6.48635 0.531753 10.2412 0.531752C13.996 0.531752 17.0508 3.58837 17.0508 7.34547C17.0508 11.1026 13.996 14.1592 10.2412 14.1592C6.48635 14.1592 3.43158 11.1026 3.43158 7.34547Z"/><path d="M-2.58176 584.569C-2.58176 579.284 1.71402 574.985 6.99624 574.985C12.2785 574.985 16.5742 579.284 16.5742 584.569C16.5742 589.854 12.2785 594.153 6.99624 594.153C1.71402 594.153 -2.58176 589.854 -2.58176 584.569Z"/><path d="M32.0711 548.495C32.0711 542.413 36.9715 537.51 43.0492 537.51C49.127 537.51 54.0273 542.413 54.0273 548.495C54.0273 554.576 49.127 559.479 43.0492 559.479C36.9715 559.479 32.0711 554.576 32.0711 548.495Z"/><path d="M66.7241 512.42C66.7241 505.575 72.2608 500.034 79.1023 500.034C85.9437 500.034 91.4805 505.575 91.4805 512.42C91.4805 519.266 85.9437 524.806 79.1023 524.806C72.2608 524.806 66.7241 519.266 66.7241 512.42Z"/><path d="M101.407 476.346C101.407 468.736 107.581 462.591 115.154 462.591C122.727 462.591 128.9 468.768 128.9 476.346C128.9 483.923 122.727 490.1 115.154 490.1C107.581 490.1 101.407 483.923 101.407 476.346Z"/><path d="M136.06 440.271C136.06 431.897 142.838 425.115 151.207 425.115C159.576 425.115 166.354 431.897 166.354 440.271C166.354 448.645 159.576 455.427 151.207 455.427C142.838 455.427 136.06 448.645 136.06 440.271Z"/><path d="M170.744 404.165C170.744 395.027 178.159 387.608 187.291 387.608C196.424 387.608 203.838 395.027 203.838 404.165C203.838 413.303 196.424 420.721 187.291 420.721C178.159 420.721 170.744 413.303 170.744 404.165Z"/><path d="M223.312 350.165C213.417 350.165 205.397 358.19 205.397 368.09C205.397 377.99 213.417 386.016 223.312 386.016C233.206 386.016 241.227 377.99 241.227 368.09C241.227 358.19 233.206 350.165 223.312 350.165Z"/><path d="M259.365 312.689C248.697 312.689 240.05 321.342 240.05 332.016C240.05 342.69 248.697 351.343 259.365 351.343C270.032 351.343 278.68 342.69 278.68 332.016C278.68 321.342 270.032 312.689 259.365 312.689Z"/><path d="M223.312 278.016C213.417 278.016 205.397 286.041 205.397 295.941C205.397 305.842 213.417 313.867 223.312 313.867C233.206 313.867 241.227 305.842 241.227 295.941C241.227 286.041 233.206 278.016 223.312 278.016Z"/><path d="M170.744 259.867C170.744 250.729 178.159 243.31 187.291 243.31C196.424 243.31 203.838 250.729 203.838 259.867C203.838 269.005 196.424 276.424 187.291 276.424C178.159 276.424 170.744 269.005 170.744 259.867Z"/><path d="M151.207 208.637C142.842 208.637 136.06 215.422 136.06 223.792C136.06 232.163 142.842 238.948 151.207 238.948C159.572 238.948 166.354 232.163 166.354 223.792C166.354 215.422 159.572 208.637 151.207 208.637Z"/><path d="M101.407 187.718C101.407 180.108 107.581 173.963 115.154 173.963C122.727 173.963 128.9 180.14 128.9 187.718C128.9 195.296 122.727 201.473 115.154 201.473C107.581 201.473 101.407 195.296 101.407 187.718Z"/><path d="M66.7241 151.643C66.7241 144.798 72.2608 139.258 79.1023 139.258C85.9437 139.258 91.4805 144.798 91.4805 151.643C91.4805 158.489 85.9437 164.029 79.1023 164.029C72.2608 164.029 66.7241 158.489 66.7241 151.643Z"/><path d="M32.0711 115.569C32.0711 109.488 36.9715 104.584 43.0492 104.584C49.127 104.584 54.0273 109.488 54.0273 115.569C54.0273 121.65 49.127 126.554 43.0492 126.554C36.9715 126.554 32.0711 121.65 32.0711 115.569Z"/><path d="M-2.58176 79.4945C-2.58176 74.2091 1.71402 69.9107 6.99624 69.9107C12.2785 69.9107 16.5742 74.2091 16.5742 79.4945C16.5742 84.7799 12.2785 89.0782 6.99624 89.0782C1.71402 89.0782 -2.58176 84.7799 -2.58176 79.4945Z"/><path d="M-8.59625 512.42C-8.59625 505.575 -3.05948 500.034 3.78195 500.034C10.6234 500.034 16.1602 505.575 16.1602 512.42C16.1602 519.266 10.6234 524.806 3.78195 524.806C-3.05947 524.806 -8.59625 519.266 -8.59625 512.42Z"/><path d="M26.0558 476.346C26.0558 468.736 32.229 462.591 39.8023 462.591C47.3756 462.591 53.5488 468.768 53.5488 476.346C53.5488 483.923 47.3756 490.1 39.8023 490.1C32.229 490.1 26.0558 483.923 26.0558 476.346Z"/><path d="M60.7088 440.271C60.7088 431.897 67.4866 425.115 75.8554 425.115C84.2242 425.115 91.002 431.897 91.002 440.271C91.002 448.645 84.2242 455.427 75.8554 455.427C67.4866 455.427 60.7088 448.645 60.7088 440.271Z"/><path d="M111.908 387.608C102.77 387.608 95.3617 395.021 95.3617 404.165C95.3617 413.309 102.77 420.722 111.908 420.722C121.047 420.722 128.455 413.309 128.455 404.165C128.455 395.021 121.047 387.608 111.908 387.608Z"/><path d="M147.962 350.165C138.068 350.165 130.047 358.19 130.047 368.09C130.047 377.99 138.068 386.016 147.962 386.016C157.856 386.016 165.877 377.99 165.877 368.09C165.877 358.19 157.856 350.165 147.962 350.165Z"/><path d="M184.013 312.689C173.346 312.689 164.698 321.342 164.698 332.016C164.698 342.69 173.346 351.343 184.013 351.343C194.68 351.343 203.328 342.69 203.328 332.016C203.328 321.342 194.68 312.689 184.013 312.689Z"/><path d="M147.962 278.016C138.068 278.016 130.047 286.041 130.047 295.941C130.047 305.842 138.068 313.867 147.962 313.867C157.856 313.867 165.877 305.842 165.877 295.941C165.877 286.041 157.856 278.016 147.962 278.016Z"/><path d="M111.908 243.31C102.77 243.31 95.3617 250.723 95.3617 259.867C95.3617 269.011 102.77 276.424 111.908 276.424C121.047 276.424 128.455 269.011 128.455 259.867C128.455 250.723 121.047 243.31 111.908 243.31Z"/><path d="M75.8554 208.637C67.4901 208.637 60.7088 215.422 60.7088 223.792C60.7088 232.163 67.4901 238.948 75.8554 238.948C84.2206 238.948 91.002 232.163 91.002 223.792C91.002 215.422 84.2206 208.637 75.8554 208.637Z"/><path d="M26.0558 187.718C26.0558 180.108 32.229 173.963 39.8023 173.963C47.3756 173.963 53.5488 180.14 53.5488 187.718C53.5488 195.296 47.3756 201.473 39.8023 201.473C32.229 201.473 26.0558 195.296 26.0558 187.718Z"/><path d="M-8.59625 151.643C-8.59625 144.798 -3.05948 139.258 3.78195 139.258C10.6234 139.258 16.1602 144.798 16.1602 151.643C16.1602 158.489 10.6234 164.029 3.78195 164.029C-3.05947 164.029 -8.59625 158.489 -8.59625 151.643Z"/><path d="M-14.6428 440.271C-14.6428 431.897 -7.86503 425.115 0.503783 425.115C8.8726 425.115 15.6504 431.897 15.6504 440.271C15.6504 448.645 8.8726 455.427 0.503786 455.427C-7.86503 455.427 -14.6428 448.645 -14.6428 440.271Z"/><path d="M36.5568 387.608C27.4183 387.608 20.0101 395.021 20.0101 404.165C20.0101 413.309 27.4183 420.722 36.5568 420.722C45.6953 420.722 53.1035 413.309 53.1035 404.165C53.1035 395.021 45.6953 387.608 36.5568 387.608Z"/><path d="M72.6417 350.165C62.7475 350.165 54.7267 358.19 54.7267 368.09C54.7267 377.99 62.7475 386.016 72.6417 386.016C82.5358 386.016 90.5566 377.99 90.5566 368.09C90.5566 358.19 82.5358 350.165 72.6417 350.165Z"/><path d="M108.695 312.689C98.0272 312.689 89.3796 321.342 89.3796 332.016C89.3796 342.69 98.0272 351.343 108.695 351.343C119.362 351.343 128.01 342.69 128.01 332.016C128.01 321.342 119.362 312.689 108.695 312.689Z"/><path d="M72.6417 278.016C62.7475 278.016 54.7267 286.041 54.7267 295.941C54.7267 305.842 62.7475 313.867 72.6417 313.867C82.5358 313.867 90.5566 305.842 90.5566 295.941C90.5566 286.041 82.5358 278.016 72.6417 278.016Z"/><path d="M36.5568 243.31C27.4183 243.31 20.0101 250.723 20.0101 259.867C20.0101 269.011 27.4183 276.424 36.5568 276.424C45.6953 276.424 53.1035 269.011 53.1035 259.867C53.1035 250.723 45.6953 243.31 36.5568 243.31Z"/><path d="M0.503783 208.637C-7.86145 208.637 -14.6428 215.422 -14.6428 223.792C-14.6428 232.163 -7.86145 238.948 0.503786 238.948C8.86902 238.948 15.6504 232.163 15.6504 223.792C15.6504 215.422 8.86902 208.637 0.503783 208.637Z"/></g><defs><clipPath id="clip0_1503_1345"><rect width="542" height="663" fill="#fff" transform="translate(354.031 663.532) rotate(180)"/></clipPath></defs></svg>